<svg width="61" height="16" viewBox="0 0 61 16" fill="none" xmlns="http://www.w3.org/2000/svg">
<path fill-rule="evenodd" clip-rule="evenodd" d="M11.588 11.9889L11.9889 11.588C12.8646 10.7122 13.2158 10.3558 13.447 10.0198C14.544 8.42529 14.544 6.31938 13.447 4.72485C13.2158 4.38884 12.8646 4.03244 11.9889 3.15668C11.1131 2.28092 10.7567 1.92973 10.4207 1.69856C8.82619 0.60155 6.72028 0.60155 5.12575 1.69856C4.78974 1.92973 4.43334 2.28092 3.55758 3.15669L3.15668 3.55758C2.28092 4.43334 1.92973 4.78974 1.69856 5.12575C0.60155 6.72028 0.60155 8.82619 1.69856 10.4207C1.92973 10.7567 2.28092 11.1131 3.15668 11.9889C4.03244 12.8646 4.38884 13.2158 4.72485 13.447C6.31938 14.544 8.42529 14.544 10.0198 13.447C10.3558 13.2158 10.7122 12.8646 11.588 11.9889ZM4.62934 0.977024C4.21054 1.26515 3.78646 1.68923 2.9383 2.5374L2.5374 2.9383C1.68923 3.78646 1.26515 4.21054 0.977024 4.62934C-0.325675 6.52285 -0.325675 9.02362 0.977024 10.9171C1.26515 11.3359 1.68923 11.76 2.5374 12.6082C3.38556 13.4563 3.80964 13.8804 4.22844 14.1685C6.12195 15.4712 8.62272 15.4712 10.5162 14.1685C10.935 13.8804 11.3591 13.4563 12.2073 12.6082L12.6082 12.2073C13.4563 11.3591 13.8804 10.935 14.1685 10.5162C15.4712 8.62272 15.4712 6.12195 14.1685 4.22844C13.8804 3.80964 13.4563 3.38556 12.6082 2.5374C11.76 1.68923 11.3359 1.26515 10.9171 0.977024C9.02362 -0.325675 6.52285 -0.325675 4.62934 0.977024Z" fill="#E7C057"/>
<path d="M3.81547 7.82505C3.60448 7.71636 3.60448 7.4147 3.81547 7.30601L3.97537 7.22363C5.32576 6.52798 6.42544 5.4283 7.12109 4.07791L7.20347 3.91801C7.31216 3.70702 7.61382 3.70702 7.72251 3.91801L7.80489 4.07791C8.50054 5.4283 9.60022 6.52798 10.9506 7.22363L11.1105 7.30601C11.3215 7.4147 11.3215 7.71636 11.1105 7.82505L10.9506 7.90743C9.60022 8.60308 8.50054 9.70276 7.80489 11.0532L7.72251 11.2131C7.61382 11.424 7.31216 11.424 7.20347 11.2131L7.12109 11.0531C6.42544 9.70276 5.32576 8.60308 3.97537 7.90743L3.81547 7.82505Z" fill="#E7C057"/>
<path d="M35.1031 2.28303C34.4446 2.69458 34.1154 3.4045 34.1154 4.43336V4.97866L33.0557 5.20502V6.37792H34.1154V13.3022H35.7719V6.37792H38.2617V4.90664H35.7822V4.44365C35.7822 3.96009 35.8953 3.672 36.1731 3.51767C36.5024 3.32219 37.0785 3.25017 37.9942 3.30161L38.2617 3.32219V1.85091H38.0251C36.6464 1.75831 35.7204 1.89206 35.1031 2.28303Z" fill="white"/>
<path d="M29.2896 2.28303C28.6312 2.69458 28.3019 3.4045 28.3019 4.43336V4.97866L27.2422 5.20502V6.37792H28.3019V13.3022H29.9584V6.37792H32.4483V4.90664H29.9687V4.44365C29.9687 3.96009 30.0819 3.672 30.3597 3.51767C30.6889 3.32219 31.2651 3.25017 32.1808 3.30161L32.4483 3.32219V1.85091H32.2116C30.8329 1.75831 29.907 1.89206 29.2896 2.28303Z" fill="white"/>
<path d="M44.5682 10.5963C44.5064 10.9872 44.3315 11.3679 43.992 11.6457C43.6422 11.9338 43.1175 12.1293 42.3149 12.1293C41.389 12.1293 40.7716 11.8618 40.3704 11.4296C40 11.0181 39.8045 10.4419 39.7531 9.7423H46.0086V9.61883C46.0291 9.40277 46.0291 9.24844 46.0291 9.03238C46.0291 7.9212 45.8234 6.91291 45.2472 6.17212C44.671 5.42105 43.7348 4.97864 42.3252 4.97864C40.7408 4.97864 39.7119 5.47249 39.0946 6.25443C38.4773 7.02608 38.2715 8.06524 38.2715 9.09411C38.2715 10.123 38.4567 11.2136 39.0637 12.0058C39.681 12.798 40.7099 13.3022 42.3458 13.3022C43.6216 13.3022 44.5167 12.9935 45.1032 12.4997C45.6896 12.0058 45.9674 11.3268 46.0291 10.6271V10.4831H44.5887L44.5682 10.5963ZM40.2984 6.91291C40.6585 6.46021 41.2655 6.15155 42.2326 6.15155C43.0969 6.15155 43.673 6.42934 44.0331 6.87175C44.383 7.29359 44.5476 7.88004 44.5682 8.5591H39.7531C39.7942 7.9212 39.9485 7.33475 40.2984 6.91291Z" fill="white"/>
<path d="M25.4422 10.5963C25.3804 10.9872 25.2055 11.3679 24.866 11.6457C24.5162 11.9338 23.9915 12.1293 23.189 12.1293C22.263 12.1293 21.6457 11.8618 21.2444 11.4296C20.874 11.0181 20.6785 10.4419 20.6271 9.7423H26.8826V9.61883C26.9032 9.40277 26.9032 9.24844 26.9032 9.03238C26.9032 7.9212 26.6974 6.91291 26.1212 6.17212C25.5451 5.42105 24.6088 4.97864 23.1992 4.97864C21.6148 4.97864 20.5859 5.47249 19.9686 6.25443C19.3513 7.02608 19.1455 8.06524 19.1455 9.09411C19.1455 10.123 19.3307 11.2136 19.9377 12.0058C20.5551 12.798 21.5839 13.3022 23.2198 13.3022C24.4956 13.3022 25.3907 12.9935 25.9772 12.4997C26.5636 12.0058 26.8414 11.3268 26.9032 10.6271V10.4831H25.4628L25.4422 10.5963ZM21.1724 6.91291C21.5325 6.46021 22.1395 6.15155 23.1066 6.15155C23.9709 6.15155 24.5471 6.42934 24.9072 6.87175C25.257 7.29359 25.4216 7.88004 25.4422 8.5591H20.6271C20.6682 7.9212 20.8226 7.33475 21.1724 6.91291Z" fill="white"/>
<path d="M54.4869 4.9066H51.997L48.7561 7.84917V1.9126H47.0996V13.3022H48.7561V9.97892L52.3571 13.2404L52.4291 13.3022H54.8676L49.8158 8.9089L54.4869 4.9066Z" fill="white"/>
<path d="M60.2188 6.30593V4.83464H57.698V2.86951H56.093V4.86551L55.0127 5.13302V6.31621H56.093V10.6786C56.093 11.6149 56.3502 12.2836 56.8852 12.7158C57.3997 13.1273 58.161 13.3228 59.2722 13.3228C59.4883 13.3228 59.7146 13.3125 59.9307 13.2919L60.2188 13.2714V11.8001L59.941 11.8207C59.7455 11.8309 59.5912 11.8412 59.4265 11.8309C58.7475 11.8309 58.2948 11.7383 58.0479 11.5429C57.8318 11.3782 57.7392 11.1107 57.7392 10.6786V6.31621H60.2188V6.30593Z" fill="white"/>
</svg>
