<svg width="16" height="16" viewBox="0 0 16 16" fill="none" xmlns="http://www.w3.org/2000/svg">
<path d="M0.240001 8.39361C-0.0800001 8.22876 -0.0800003 7.77124 0.240001 7.60639L1.95293 6.72397C4.00103 5.66889 5.66889 4.00103 6.72397 1.95293L7.60639 0.240001C7.77124 -0.0800001 8.22876 -0.0800003 8.39361 0.240001L9.27603 1.95293C10.3311 4.00103 11.999 5.66889 14.0471 6.72397L15.76 7.60639C16.08 7.77124 16.08 8.22876 15.76 8.39361L14.0471 9.27603C11.999 10.3311 10.3311 11.999 9.27603 14.0471L8.39361 15.76C8.22876 16.08 7.77124 16.08 7.60639 15.76L6.72397 14.0471C5.66889 11.999 4.00103 10.3311 1.95293 9.27603L0.240001 8.39361Z" fill="#E7C057"/>
</svg>
